<svg id="ツクルデBanner" xmlns="http://www.w3.org/2000/svg" width="801.353" height="161.207" viewBox="0 0 801.353 161.207">
  <path id="パス_49073" data-name="パス 49073" d="M742.678,161.207H0L58.675,0H801.353Z" fill="#fff"/>
  <path id="パス_52712" data-name="パス 52712" d="M15.26-4.14a33.164,33.164,0,0,1-2.9,1.7,8.347,8.347,0,0,1-1.66-1.7ZM6.08-7.08h7.8V-5.6H6.08Zm0-2.78h7.8v1.38H6.08Zm4.82-1.48v-1.8H9v1.8H5.38a20.481,20.481,0,0,0,4.54-3.84,22.1,22.1,0,0,0,4.74,3.84Zm5.72,6.22c-.26.2-.54.42-.86.64v-6.2c.82.46,1.64.88,2.42,1.22a13.053,13.053,0,0,1,1.16-1.66,21.706,21.706,0,0,1-8.58-5.7H8.9A20.911,20.911,0,0,1,.7-10.9,7.912,7.912,0,0,1,1.78-9.38a25.968,25.968,0,0,0,2.46-1.26V-.5c-.8.06-1.52.12-2.16.16l.26,1.72c2.26-.2,5.46-.5,8.5-.82L10.82-1.1c-1.6.16-3.24.3-4.74.44V-4.14H8.82C10.56-.98,13.6.84,17.9,1.58A6.16,6.16,0,0,1,19.02-.04a16.382,16.382,0,0,1-5.22-1.5A36.752,36.752,0,0,0,18-4.02ZM35.76-10.9h-7.5v-3.26h7.5Zm1.9-5.04H26.48v6.82H37.66ZM29.06-5.4v4.16H25.42V-5.4Zm-5.4,6.98h1.76V.54h3.64v.9H30.9V-7.18H23.66ZM34.64-1.24V-5.4H38.6v4.16ZM32.86-7.18V1.58h1.78V.54H38.6v.94h1.86V-7.18ZM62.12-16.6h-1.7v8.1c0,.22-.08.3-.36.32-.3.02-1.26.02-2.26-.02a6.421,6.421,0,0,1,.58,1.52,9.359,9.359,0,0,0,2.94-.26c.62-.26.8-.66.8-1.54Zm-4.44.6H56v6.64h1.68Zm-11.1,2.84a11.31,11.31,0,0,0,.66-1.02H49.4v1.02Zm2.82,2.2H46v3.8h1.46v-2.6H49.4v3.1H51v-3.1h2.06v1.18c0,.14-.04.18-.22.2-.18,0-.64,0-1.22-.02a5.731,5.731,0,0,1,.48,1.14,5.049,5.049,0,0,0,1.92-.2c.46-.2.56-.5.56-1.14v-2.36H51v-.9h4.04v-1.3H51v-1.02h3.44v-1.24H51v-1.36H49.4v1.36H47.86c.14-.32.26-.64.38-.96l-1.42-.36a8.584,8.584,0,0,1-1.58,2.96,8.183,8.183,0,0,1,1.16.62H45.08v1.3H49.4ZM60.68-4.54a26.366,26.366,0,0,1-3.46,2.08,7.854,7.854,0,0,1-1.64-2.08h7.28V-6.02H54.92V-7.16H53.08v1.14H45.16v1.48h6.52a22.463,22.463,0,0,1-6.86,2.2,6.43,6.43,0,0,1,1,1.36A24.668,24.668,0,0,0,49.5-2.02V-.4c-.74.1-1.42.2-2,.26l.28,1.54C49.9,1.08,52.86.62,55.66.2l-.08-1.48c-1.44.22-2.92.44-4.28.64V-2.78a14.868,14.868,0,0,0,2.62-1.56C55.44-1.16,58.1.82,62.18,1.62A4.831,4.831,0,0,1,63.22.14a12.607,12.607,0,0,1-4.8-1.7,21.41,21.41,0,0,0,3.6-2.02Zm17-8.26v2.16h-5.5v1.58H84.94v-1.58H79.52V-12.8H84.1v-1.6H79.52v-2.38H77.68v2.38H75.76a17.067,17.067,0,0,0,.72-1.76l-1.74-.38a11.639,11.639,0,0,1-2.86,4.76,10.12,10.12,0,0,1,1.58.9,13.663,13.663,0,0,0,1.42-1.92ZM75.7-6.2h5.98v2.66H75.7Zm7.92,4.18V-7.7H73.88v5.68ZM71.96-13.26a15.705,15.705,0,0,0-3.42-3.06L67.16-15.2a15.026,15.026,0,0,1,3.34,3.16Zm-.54,4.24H67.04V-7.3H69.6v4.7A30.148,30.148,0,0,1,66.7-.54l.96,1.92c1.04-.86,2-1.66,2.94-2.48,1.26,1.54,2.98,2.2,5.52,2.3,2.28.1,6.3.06,8.56-.04a8.472,8.472,0,0,1,.62-1.9c-2.5.16-6.94.22-9.16.14-2.2-.08-3.84-.72-4.72-2.1Zm29.32-2.8a18.659,18.659,0,0,1-.88,1.9H95.64l.58-.12a8.414,8.414,0,0,0-.86-1.78Zm6.02,8.76V-4.62H98.88V-5.84h6.14v-1.4H98.88v-1.2h7.08V-9.92h-4.24c.34-.56.74-1.22,1.12-1.9h3.86v-1.56h-2.88a31.291,31.291,0,0,0,1.66-2.72l-1.92-.48a17.432,17.432,0,0,1-1.4,2.96l.76.24h-2.16V-16.8H99v3.42H97.02V-16.8H95.28v3.42h-2.2l1.02-.38a13.9,13.9,0,0,0-1.6-2.86l-1.62.54a14.994,14.994,0,0,1,1.46,2.7H89.38v1.56h4.54l-.48.08a9.908,9.908,0,0,1,.84,1.82h-4.1v1.48h6.88v1.2h-5.9v1.4h5.9v1.22H89.3v1.56h6.18A19.4,19.4,0,0,1,88.74-.28,8.346,8.346,0,0,1,89.96,1.3a19.866,19.866,0,0,0,7.1-3.6V1.58h1.82V-2.44a17.841,17.841,0,0,0,7.16,3.76,8.352,8.352,0,0,1,1.24-1.66,18.367,18.367,0,0,1-6.78-2.72Zm21.56-3.96c0-4.18-3.04-7.54-7.84-7.54-5.02,0-8.94,3.84-8.94,8.32,0,3.34,1.82,5.54,3.8,5.54s3.64-2.26,4.84-6.34a39.824,39.824,0,0,0,1.2-5.62,5.318,5.318,0,0,1,4.84,5.58,5.752,5.752,0,0,1-4.84,5.68,12.361,12.361,0,0,1-1.78.28L120.78.76C125.64.06,128.32-2.82,128.32-7.02Zm-14.76.58a6.686,6.686,0,0,1,5.7-6.18,31.841,31.841,0,0,1-1.1,5.16c-.92,3.08-1.86,4.38-2.76,4.38C114.54-3.08,113.56-4.14,113.56-6.44Zm25.76-9.68h-5.56v1.46h5.56Zm.58,2.64h-7.1V-12h7.1Zm-.52,2.72h-5.7v1.44h5.7Zm-5.7,4.12h5.7V-8.1h-5.7Zm4.14,2.74v2.88h-2.6V-3.9Zm1.58-1.5h-5.74V1.32h1.56V.48h4.18Zm3.08-5.94h2.22V-9.6h-2.22Zm0-3.14h2.22v1.7h-2.22Zm6.12,1.7h-2.28v-1.7h2.28Zm0,3.18h-2.28v-1.74h2.28ZM150.88-5V-6.66H146.4V-8.1h3.92V-16h-9.5v7.9h3.78v1.44h-4.46V-5h3.66a12.074,12.074,0,0,1-4.38,4.32A7.615,7.615,0,0,1,140.66.74a13.694,13.694,0,0,0,3.94-4.18v5h1.8V-3.62A16.652,16.652,0,0,0,150.14.62a7.01,7.01,0,0,1,1.26-1.4A14.143,14.143,0,0,1,147.26-5Zm19.54-5.64h-4.24v-1.24h4.24Zm0,2.48h-4.24V-9.4h4.24Zm0,2.52h-4.24V-6.9h4.24ZM164.5-13.2v8.88h7.66V-13.2H168.6c.18-.4.36-.86.54-1.3h3.74v-1.38H163.8v1.38h3.62c-.12.44-.24.88-.38,1.3Zm4.4,9.76a16.47,16.47,0,0,1,2.98,2.68l1.34-.84a15.782,15.782,0,0,0-3.02-2.54Zm-2.76-.62a9.343,9.343,0,0,1-3.18,2.28,9.318,9.318,0,0,1,1.22,1.12,12.343,12.343,0,0,0,3.5-2.92Zm-5-9.36H157.7v-1.26h3.44Zm0,2.5H157.7V-12.2h3.44Zm1.72-5.06h-6.8v6.36h6.8ZM160.42-3.6h3.14V-5h-3.14V-6.88h3.5V-8.3H155v1.42h3.82v4.96a5.224,5.224,0,0,1-1.28-1.78c.08-.74.12-1.48.14-2.24h-1.52c-.06,2.42-.34,4.94-1.5,6.34a5.127,5.127,0,0,1,1.12,1.26,7.668,7.668,0,0,0,1.48-3.4c1.7,2.46,4.42,2.9,8.48,2.9h6.96a5.094,5.094,0,0,1,.62-1.56c-1.36.04-6.48.04-7.58.04a15.853,15.853,0,0,1-5.32-.62Zm25.02-12.32-2.08-.16a9.959,9.959,0,0,1-.46,2.38c-.4.02-.8.02-1.18.02a25.851,25.851,0,0,1-3.44-.22v1.88c1.12.08,2.5.12,3.34.12h.58a20.1,20.1,0,0,1-4.52,5.84l1.72,1.28a21.752,21.752,0,0,1,1.82-2.14,5.1,5.1,0,0,1,3.32-1.44,1.61,1.61,0,0,1,1.64,1c-2.32,1.18-4.72,2.74-4.72,5.2,0,2.48,2.32,3.18,5.3,3.18a50.93,50.93,0,0,0,5.56-.36l.06-2.02a34.057,34.057,0,0,1-5.56.52c-2.02,0-3.32-.28-3.32-1.64,0-1.18,1.08-2.1,2.8-3.04-.02.98-.04,2.12-.08,2.82h1.9c-.02-.96-.04-2.56-.06-3.7,1.4-.64,2.7-1.16,3.72-1.56.6-.24,1.46-.56,2.04-.74L193-10.54c-.64.32-1.22.58-1.9.88-.94.44-1.96.86-3.2,1.44a2.633,2.633,0,0,0-2.68-1.7,5.874,5.874,0,0,0-2.56.6,16.049,16.049,0,0,0,1.54-2.64,61.8,61.8,0,0,0,6.58-.52v-1.86a46.109,46.109,0,0,1-5.88.58C185.16-14.62,185.32-15.36,185.44-15.92Zm30.32,2.56-1.54-.98a7.294,7.294,0,0,1-1.54.12h-9.96c-.88,0-1.7-.02-2.26-.06.04.48.08,1,.08,1.48v4.26c0,.44-.04.9-.08,1.44h2.3a14.039,14.039,0,0,1-.06-1.44v-3.72h10.4a14.959,14.959,0,0,1-1.86,6.4,12.634,12.634,0,0,1-7.4,4.96L205.58.88a14.392,14.392,0,0,0,7.58-5.68c1.48-2.34,1.92-5.2,2.28-7.46A6.15,6.15,0,0,1,215.76-13.36Zm8.9-1.54-1.46,1.56a43.379,43.379,0,0,1,5,4.24l1.58-1.62A41.968,41.968,0,0,0,224.66-14.9ZM222.6-1.52,223.94.54a22.052,22.052,0,0,0,7.66-2.98,20.449,20.449,0,0,0,7.02-7.24l-1.22-2.18a19.042,19.042,0,0,1-6.94,7.54A20.781,20.781,0,0,1,222.6-1.52Zm35.3-11.94-1.3-.96a6.066,6.066,0,0,1-1.74.2h-7.42a21.4,21.4,0,0,1-2.18-.14v2.26c.32-.02,1.4-.12,2.18-.12h7.34a16.454,16.454,0,0,1-3.18,5.28,22.473,22.473,0,0,1-8.22,5.86L245,.62a26.255,26.255,0,0,0,7.7-5.76A44.885,44.885,0,0,1,258,.7l1.76-1.56a53.159,53.159,0,0,0-5.72-5.86,27.375,27.375,0,0,0,3.28-5.7A6.9,6.9,0,0,1,257.9-13.46ZM270.14-1.84a20.936,20.936,0,0,1-.16,2.56h2.46a23.432,23.432,0,0,1-.16-2.56V-8.02a52.367,52.367,0,0,1,7.56,3.12l.9-2.18a67.791,67.791,0,0,0-8.46-3.2V-13.4c0-.7.08-1.58.14-2.24h-2.46a14.475,14.475,0,0,1,.18,2.24Zm25.32-9.84-1.88.62a36.577,36.577,0,0,1,1.6,4.4l1.88-.68C296.8-8.22,295.82-10.84,295.46-11.68Zm7.3,1.28-2.2-.7a13.881,13.881,0,0,1-2.66,6.84,13.629,13.629,0,0,1-6.56,4.22L293,1.66a15.5,15.5,0,0,0,6.58-4.84,16.032,16.032,0,0,0,2.8-6.04C302.46-9.54,302.58-9.9,302.76-10.4Zm-11.96-.24-1.88.68a40.851,40.851,0,0,1,1.82,4.56l1.9-.7C292.26-7.2,291.26-9.72,290.8-10.64Zm32.9-3.86a1.264,1.264,0,0,1,1.24-1.26,1.281,1.281,0,0,1,1.26,1.26,1.264,1.264,0,0,1-1.26,1.24A1.246,1.246,0,0,1,323.7-14.5Zm-1.06,0a2.482,2.482,0,0,0,.06.54,6.79,6.79,0,0,1-.86.04h-9.7c-.66,0-1.6-.08-2.16-.14v2.24c.52-.04,1.32-.08,2.16-.08h9.84a14.492,14.492,0,0,1-2.5,6.14A13.42,13.42,0,0,1,311.66-1L313.38.88a15.555,15.555,0,0,0,7.94-5.42,20.375,20.375,0,0,0,3-7.34c.02-.12.06-.26.08-.38a2.483,2.483,0,0,0,.54.06,2.3,2.3,0,0,0,2.32-2.3,2.318,2.318,0,0,0-2.32-2.3A2.3,2.3,0,0,0,322.64-14.5Zm8.46,1.1.2,2.18c2.24-.48,6.9-.96,8.92-1.16a8.023,8.023,0,0,0-3.4,6.5c0,4.4,4.1,6.5,8.02,6.7l.72-2.14c-3.3-.14-6.7-1.36-6.7-5a6.631,6.631,0,0,1,4.42-6.02,19.273,19.273,0,0,1,3.9-.28v-2.02c-1.38.04-3.38.16-5.52.34-3.68.32-7.24.66-8.7.8C332.56-13.46,331.86-13.42,331.1-13.4Zm13.2,3-1.2.52a18.913,18.913,0,0,1,1.6,2.8l1.24-.56A27.922,27.922,0,0,0,344.3-10.4Zm2.22-.86-1.2.54A18.767,18.767,0,0,1,347-7.96l1.22-.58A28.893,28.893,0,0,0,346.52-11.26ZM358.1-5.04V-7.06h1.5v2.02Zm-2.82-2.02h1.52v2.02h-1.54c.02-.5.02-.98.02-1.44Zm2.62-6.48a16.827,16.827,0,0,1-.74,1.8h-2.04c.3-.56.58-1.18.84-1.8Zm.2,3.2h1.5v1.9h-1.5Zm-2.82,0h1.52v1.9h-1.52Zm13.3-3.9c-.1,2.04-.24,2.86-.46,3.1a.538.538,0,0,1-.54.18,14.261,14.261,0,0,1-1.62-.08,4.519,4.519,0,0,1,.42,1.54,12.871,12.871,0,0,0,2.02-.02,1.5,1.5,0,0,0,1.14-.56c.42-.48.6-1.82.74-5.06.02-.2.02-.64.02-.64h-8.7v1.54h2.48a4.852,4.852,0,0,1-2.94,3.94v-1.44h-2.38a25.678,25.678,0,0,0,1.2-2.64l-1.08-.68-.26.08h-2.1c.16-.48.3-.96.44-1.44l-1.7-.38a14.465,14.465,0,0,1-3.02,6.24,12.541,12.541,0,0,1,1.36,1.1l.18-.22V-6.5c0,2.24-.14,5.18-1.48,7.28a7.326,7.326,0,0,1,1.32.82,11.8,11.8,0,0,0,1.54-5.22h4.44V-.36c0,.26-.1.34-.36.36-.24,0-1.08,0-2.04-.02a5.911,5.911,0,0,1,.58,1.56,6.884,6.884,0,0,0,2.66-.28c.54-.28.7-.8.7-1.6v-9.78a5.082,5.082,0,0,1,.88,1.16c2.46-1.1,3.38-2.94,3.78-5.28Zm2.26,10.58H367.2V-5.82h3.26v-1.6H367.2V-9.34h-1.76v1.92h-1.4q.21-.72.36-1.44l-1.54-.32a11.329,11.329,0,0,1-1.72,4.4,8.481,8.481,0,0,1,1.4.74,9.853,9.853,0,0,0,.94-1.78h1.96v2.16h-3.96v1.62h3.96V1.48h1.76V-2.04h3.64Zm9.24-10.92a14.661,14.661,0,0,0-3.6-2.06l-1.02,1.34A15.4,15.4,0,0,1,379-13.08Zm-1.02,5.2a17.112,17.112,0,0,0-3.68-1.94l-1.02,1.4a15.3,15.3,0,0,1,3.62,2.12Zm-.68,3.1a60.547,60.547,0,0,1-3.44,6.4l1.6,1.18c1.08-1.92,2.3-4.3,3.26-6.4Zm8.02-5.64h2.98V-7.8h-3.04c.04-.72.06-1.42.06-2.14Zm6.38,5.86V-7.8H391.2v-5.86h-4.8v-3.1h-1.84v3.1H380.9v1.74h3.66v1.96c0,.72-.02,1.44-.08,2.16h-4.62v1.74h4.36c-.56,2.42-1.94,4.64-5.32,6.36a7.971,7.971,0,0,1,1.5,1.32,10.019,10.019,0,0,0,5.54-6.84,11.09,11.09,0,0,0,5.72,6.84A6.908,6.908,0,0,1,392.96,0a9.381,9.381,0,0,1-5.42-6.06Zm9.9-9.64-2.56-.02a11.572,11.572,0,0,1,.22,2.32c0,1.92-.2,7.08-.2,9.92,0,3.32,2.04,4.62,5.08,4.62a10.156,10.156,0,0,0,8.5-4.48L412.3-5.08c-1.44,2.14-3.54,4.12-7.04,4.12-1.74,0-3.04-.72-3.04-2.84,0-2.76.14-7.38.24-9.6A18.246,18.246,0,0,1,402.68-15.7ZM422.96-2.18c0-.8.92-1.46,2.62-1.46a9.06,9.06,0,0,1,1.82.18c.02.44.02.84.02,1.12,0,1.28-.86,1.62-1.98,1.62C423.72-.72,422.96-1.32,422.96-2.18ZM429.26-16h-2.14a6.561,6.561,0,0,1,.1,1.26v1.22h-.86a36.237,36.237,0,0,1-5.02-.44l.02,1.82c1.3.16,3.7.36,5.02.36h.82v2.46h-1.02a39.1,39.1,0,0,1-4.94-.36l.02,1.88c1.38.16,3.6.26,4.88.26h1.1c.02.74.06,1.56.08,2.34-.48-.04-.96-.08-1.48-.08-2.98,0-4.76,1.3-4.76,3.22,0,2,1.62,3.12,4.62,3.12,2.62,0,3.72-1.38,3.72-2.9,0-.28-.02-.62-.04-1.04A15.378,15.378,0,0,1,433.86.04l1.16-1.78a16.059,16.059,0,0,0-5.74-3.06c-.04-.9-.1-1.86-.14-2.78,1.92-.08,3.58-.22,5.42-.44l.02-1.86c-1.74.24-3.5.42-5.48.5v-2.48c1.94-.08,3.8-.26,5.28-.44v-1.84a43.944,43.944,0,0,1-5.26.56c.02-.44.02-.82.04-1.06C429.18-15.2,429.22-15.64,429.26-16Zm23.12.04h-2.3c.04.2.1.82.16,1.46.02.24.02.58.04,1.02-2.86.04-6.58.14-8.84.18l.06,1.92c2.48-.16,5.76-.28,8.8-.32,0,.58.02,1.18.02,1.7a4,4,0,0,0-1.12-.14,3.612,3.612,0,0,0-3.72,3.6,3.34,3.34,0,0,0,3.36,3.48,3.133,3.133,0,0,0,1.4-.3c-.96,1.54-2.8,2.42-5.16,2.94l1.7,1.68c4.74-1.38,6.16-4.52,6.16-7.18a4.926,4.926,0,0,0-.7-2.66c0-.9,0-2.06-.02-3.14,2.9,0,4.8.04,5.98.1l.04-1.88h-6c0-.4,0-.76.02-1A11.655,11.655,0,0,1,452.38-15.96Zm-5.02,9.38a1.8,1.8,0,0,1,1.82-1.88,1.649,1.649,0,0,1,1.56.96c.26,1.88-.52,2.7-1.56,2.7A1.755,1.755,0,0,1,447.36-6.58Zm16.12,1.66a3.158,3.158,0,0,0-3.14,3.14,3.141,3.141,0,0,0,3.14,3.12,3.111,3.111,0,0,0,3.12-3.12A3.128,3.128,0,0,0,463.48-4.92Zm0,5.06a1.921,1.921,0,0,1-1.92-1.92,1.921,1.921,0,0,1,1.92-1.92,1.92,1.92,0,0,1,1.92,1.92A1.92,1.92,0,0,1,463.48.14Z" transform="translate(160.677 133.203)"/>
  <g id="top_logo" transform="translate(164.1 40.724)">
    <g id="グループ_4507" data-name="グループ 4507">
      <path id="パス_52679" data-name="パス 52679" d="M108.5,3.567,109.7.114H95.647L85.052,29.259l14.148.029,5.214-14.42,14.169.033-9.165,25.362-5.809-.018-4.09,11.224,19.6.008.028-.075h.2L136.733,3.706Z" transform="translate(-25.377 -0.034)" fill="#231815"/>
      <path id="パス_52680" data-name="パス 52680" d="M160.949,31.2,150.2,60.727l14.005.03L174.984,31.2Z" transform="translate(-44.817 -9.31)" fill="#231815"/>
      <path id="パス_52681" data-name="パス 52681" d="M187.327,5.349l-14.058-.01-4.07,11.12h14.028Z" transform="translate(-50.484 -1.593)" fill="#231815"/>
      <path id="パス_52682" data-name="パス 52682" d="M201.679,14.866h13.773L220.962.08,207,0Z" transform="translate(-60.176)" fill="#231815"/>
      <path id="パス_52683" data-name="パス 52683" d="M207.175,31.244H193.033L182.181,60.732l25.635.064,4.129-11.4-11.436-.019Z" transform="translate(-54.358 -9.322)" fill="#231815"/>
      <path id="パス_52684" data-name="パス 52684" d="M54.832,5.188,41.6,41.6l-8.354-.052L29.129,52.84l22.4.078L69.147,4.989Z" transform="translate(-8.691 -1.489)" fill="#231815"/>
      <path id="パス_52685" data-name="パス 52685" d="M44.989,5.253l-11.332.029L24.4,30.98l11.361.029Z" transform="translate(-7.28 -1.567)" fill="#231815"/>
      <path id="パス_52686" data-name="パス 52686" d="M9.451,5.17,0,30.8l11.3.058L20.725,5.2Z" transform="translate(0 -1.543)" fill="#231815"/>
      <path id="パス_52687" data-name="パス 52687" d="M310.719,16.439l11.443-.039,3.982-11.114-11.3-.079Z" transform="translate(-92.711 -1.553)" fill="#231815"/>
      <path id="パス_52688" data-name="パス 52688" d="M339.345,5.206l-4.121,11.233,11.443-.039,3.982-11.114Z" transform="translate(-100.023 -1.553)" fill="#231815"/>
      <path id="パス_52689" data-name="パス 52689" d="M241.5,16.449l42.61-.1L288.1,5.283,245.6,5.24Z" transform="translate(-72.057 -1.563)" fill="#231815"/>
      <path id="パス_52690" data-name="パス 52690" d="M232.1,42.288l14.538-.029-6.758,18.456h14.071l6.8-18.484,19.985-.039,3.994-11.07L236.2,31.079Z" transform="translate(-69.251 -9.273)" fill="#231815"/>
    </g>
    <path id="パス_52691" data-name="パス 52691" d="M437.871,53.23H344.054l17.6-48.348h93.818Z" transform="translate(-102.657 -1.457)" fill="#f13b3b"/>
    <g id="グループ_4508" data-name="グループ 4508" transform="translate(264.139 16.945)">
      <path id="パス_52692" data-name="パス 52692" d="M379.9,37.687a4.383,4.383,0,0,0,.384,1.922,3.463,3.463,0,0,0,1.071,1.3,4.537,4.537,0,0,0,1.579.741,7.586,7.586,0,0,0,1.935.234,6.214,6.214,0,0,0,1.922-.261,3.893,3.893,0,0,0,1.29-.673,2.439,2.439,0,0,0,.714-.947,2.845,2.845,0,0,0,.22-1.085,2.342,2.342,0,0,0-.508-1.661,2.911,2.911,0,0,0-1.111-.756,23.854,23.854,0,0,0-2.43-.728q-1.386-.343-3.418-.892a7.315,7.315,0,0,1-2.1-.865,4.981,4.981,0,0,1-1.332-1.194,4.2,4.2,0,0,1-.7-1.4,5.626,5.626,0,0,1-.206-1.51,5.1,5.1,0,0,1,.618-2.567,5.489,5.489,0,0,1,1.633-1.8,7.193,7.193,0,0,1,2.306-1.057,10.109,10.109,0,0,1,2.608-.344,10.26,10.26,0,0,1,2.9.4,7.152,7.152,0,0,1,2.388,1.194,5.668,5.668,0,0,1,2.237,4.667h-3.432a3.311,3.311,0,0,0-1.29-2.677,5.124,5.124,0,0,0-2.937-.782,6.394,6.394,0,0,0-1.236.124,3.917,3.917,0,0,0-1.153.412,2.516,2.516,0,0,0-.864.782,2.393,2.393,0,0,0,.3,2.869,4.176,4.176,0,0,0,1.688.892c.073.019.361.1.865.234s1.066.288,1.688.453l1.826.481c.594.155,1.019.27,1.276.342a5.731,5.731,0,0,1,1.675.824,5.3,5.3,0,0,1,1.194,1.194A4.949,4.949,0,0,1,392.211,37a5.28,5.28,0,0,1,.234,1.537,5.544,5.544,0,0,1-.673,2.815A5.7,5.7,0,0,1,390,43.258a7.684,7.684,0,0,1-2.5,1.085,11.952,11.952,0,0,1-2.855.344,11.76,11.76,0,0,1-3.157-.412,7.367,7.367,0,0,1-2.581-1.264,6.161,6.161,0,0,1-1.757-2.183,7.261,7.261,0,0,1-.686-3.143H379.9Z" transform="translate(-376.467 -24.151)" fill="#fff"/>
      <path id="パス_52693" data-name="パス 52693" d="M415.414,43.4a1.667,1.667,0,0,0,.151.824.636.636,0,0,0,.59.247h.329a2.1,2.1,0,0,0,.439-.055v2.168c-.109.037-.251.078-.425.124s-.352.086-.535.123-.366.064-.549.083-.339.027-.467.027a3.022,3.022,0,0,1-1.592-.384,1.913,1.913,0,0,1-.824-1.345,5.54,5.54,0,0,1-2.292,1.318,9.014,9.014,0,0,1-2.622.412,6.424,6.424,0,0,1-1.84-.261,4.815,4.815,0,0,1-1.551-.769,3.67,3.67,0,0,1-1.071-1.29,3.973,3.973,0,0,1-.4-1.826,4.223,4.223,0,0,1,.48-2.141,3.565,3.565,0,0,1,1.263-1.29,5.732,5.732,0,0,1,1.757-.673q.973-.205,1.962-.316a16.085,16.085,0,0,1,1.62-.233,7.648,7.648,0,0,0,1.359-.234,2.073,2.073,0,0,0,.933-.508,1.394,1.394,0,0,0,.343-1.029,1.6,1.6,0,0,0-.288-.989,1.937,1.937,0,0,0-.714-.591,3.088,3.088,0,0,0-.947-.274,7.615,7.615,0,0,0-.989-.068,3.934,3.934,0,0,0-2.169.549,2.142,2.142,0,0,0-.961,1.7h-3.129a4.712,4.712,0,0,1,.659-2.279,4.554,4.554,0,0,1,1.469-1.455,6.033,6.033,0,0,1,2.018-.769,12.042,12.042,0,0,1,2.306-.22,9.749,9.749,0,0,1,2.059.22,5.867,5.867,0,0,1,1.826.714,3.953,3.953,0,0,1,1.3,1.277,3.5,3.5,0,0,1,.494,1.907v7.3Zm-3.129-3.953a3.794,3.794,0,0,1-1.757.563q-1.044.1-2.086.288a6.685,6.685,0,0,0-.961.234,2.868,2.868,0,0,0-.824.412,1.813,1.813,0,0,0-.563.686,2.354,2.354,0,0,0-.206,1.03,1.309,1.309,0,0,0,.3.878,2.182,2.182,0,0,0,.728.562,3.347,3.347,0,0,0,.933.288,5.818,5.818,0,0,0,.919.083,5.082,5.082,0,0,0,1.126-.138,3.745,3.745,0,0,0,1.139-.467,3.006,3.006,0,0,0,.892-.837,2.124,2.124,0,0,0,.357-1.249V39.447Z" transform="translate(-384.312 -26.487)" fill="#fff"/>
      <path id="パス_52694" data-name="パス 52694" d="M438.147,43.4a1.667,1.667,0,0,0,.151.824.636.636,0,0,0,.59.247h.329a2.1,2.1,0,0,0,.439-.055v2.168c-.109.037-.251.078-.425.124s-.352.086-.535.123-.366.064-.549.083-.339.027-.467.027a3.023,3.023,0,0,1-1.592-.384,1.913,1.913,0,0,1-.824-1.345,5.54,5.54,0,0,1-2.292,1.318,9.014,9.014,0,0,1-2.622.412,6.424,6.424,0,0,1-1.84-.261,4.816,4.816,0,0,1-1.551-.769,3.669,3.669,0,0,1-1.071-1.29,3.973,3.973,0,0,1-.4-1.826,4.223,4.223,0,0,1,.48-2.141,3.565,3.565,0,0,1,1.263-1.29,5.733,5.733,0,0,1,1.757-.673q.974-.205,1.962-.316a16.084,16.084,0,0,1,1.62-.233,7.648,7.648,0,0,0,1.359-.234,2.073,2.073,0,0,0,.933-.508,1.394,1.394,0,0,0,.343-1.029,1.6,1.6,0,0,0-.288-.989,1.937,1.937,0,0,0-.714-.591,3.088,3.088,0,0,0-.947-.274,7.615,7.615,0,0,0-.989-.068A3.934,3.934,0,0,0,430.1,35a2.142,2.142,0,0,0-.961,1.7h-3.129a4.712,4.712,0,0,1,.659-2.279,4.547,4.547,0,0,1,1.469-1.455,6.033,6.033,0,0,1,2.018-.769,12.042,12.042,0,0,1,2.306-.22,9.749,9.749,0,0,1,2.059.22,5.868,5.868,0,0,1,1.826.714,3.953,3.953,0,0,1,1.3,1.277,3.5,3.5,0,0,1,.494,1.907v7.3Zm-3.129-3.953a3.794,3.794,0,0,1-1.757.563q-1.044.1-2.086.288a6.686,6.686,0,0,0-.961.234,2.868,2.868,0,0,0-.824.412,1.813,1.813,0,0,0-.563.686,2.354,2.354,0,0,0-.206,1.03,1.309,1.309,0,0,0,.3.878,2.182,2.182,0,0,0,.728.562,3.347,3.347,0,0,0,.933.288,5.819,5.819,0,0,0,.919.083,5.082,5.082,0,0,0,1.126-.138,3.746,3.746,0,0,0,1.139-.467,3.006,3.006,0,0,0,.892-.837,2.124,2.124,0,0,0,.357-1.249V39.447Z" transform="translate(-391.095 -26.487)" fill="#fff"/>
      <path id="パス_52695" data-name="パス 52695" d="M451.695,37.687a4.383,4.383,0,0,0,.384,1.922,3.463,3.463,0,0,0,1.071,1.3,4.537,4.537,0,0,0,1.579.741,7.586,7.586,0,0,0,1.935.234,6.214,6.214,0,0,0,1.922-.261,3.893,3.893,0,0,0,1.29-.673,2.439,2.439,0,0,0,.714-.947,2.845,2.845,0,0,0,.22-1.085,2.342,2.342,0,0,0-.508-1.661,2.911,2.911,0,0,0-1.111-.756,23.849,23.849,0,0,0-2.43-.728q-1.386-.343-3.418-.892a7.314,7.314,0,0,1-2.1-.865,4.98,4.98,0,0,1-1.332-1.194,4.2,4.2,0,0,1-.7-1.4,5.626,5.626,0,0,1-.206-1.51,5.1,5.1,0,0,1,.618-2.567,5.49,5.49,0,0,1,1.633-1.8,7.193,7.193,0,0,1,2.306-1.057,10.109,10.109,0,0,1,2.608-.344,10.26,10.26,0,0,1,2.9.4,7.152,7.152,0,0,1,2.388,1.194,5.668,5.668,0,0,1,2.237,4.667H460.26a3.311,3.311,0,0,0-1.29-2.677,5.124,5.124,0,0,0-2.937-.782,6.394,6.394,0,0,0-1.236.124,3.917,3.917,0,0,0-1.153.412,2.516,2.516,0,0,0-.864.782,2.393,2.393,0,0,0,.3,2.869,4.176,4.176,0,0,0,1.688.892c.073.019.361.1.865.234s1.066.288,1.688.453,1.231.325,1.826.481,1.019.27,1.276.342a5.731,5.731,0,0,1,1.675.824,5.3,5.3,0,0,1,1.194,1.194A4.949,4.949,0,0,1,464.008,37a5.28,5.28,0,0,1,.234,1.537,5.544,5.544,0,0,1-.673,2.815,5.7,5.7,0,0,1-1.771,1.907,7.684,7.684,0,0,1-2.5,1.085,11.952,11.952,0,0,1-2.855.344,11.76,11.76,0,0,1-3.157-.412,7.366,7.366,0,0,1-2.581-1.264,6.161,6.161,0,0,1-1.757-2.183,7.26,7.26,0,0,1-.686-3.143H451.7Z" transform="translate(-397.889 -24.151)" fill="#fff"/>
    </g>
  </g>
</svg>
