<svg xmlns="http://www.w3.org/2000/svg" width="488.902" height="53.182" viewBox="0 0 488.902 53.182">
  <g id="お知らせボタン" transform="translate(-616.102 -540)">
    <path id="パス_49072" data-name="パス 49072" d="M1662.174,1033.435H1192.63l19.357-53.182h469.544Z" transform="translate(-576.528 -440.253)" fill="#f43b3b"/>
    <path id="パス_52713" data-name="パス 52713" d="M6.976-12.992H4.768a12.877,12.877,0,0,1,.112,1.408c0,.272,0,.736-.016,1.3-.32.016-.64.032-.928.032a17.742,17.742,0,0,1-2.208-.128L1.76-8.448A19.616,19.616,0,0,0,4-8.368c.256,0,.544-.016.848-.032v1.344c0,.368,0,.752.016,1.136C2.9-5.072,1.3-3.616,1.3-2.224,1.3-.528,3.488.816,5.04.816,6.1.816,6.8.288,6.8-1.7c0-.544-.032-1.792-.064-3.056A10.787,10.787,0,0,1,9.744-5.2c1.392,0,2.352.64,2.352,1.728,0,1.168-1.024,1.808-2.32,2.048a12.32,12.32,0,0,1-1.968.112L8.544.752A14.65,14.65,0,0,0,10.64.5c2.544-.64,3.536-2.064,3.536-3.952,0-2.208-1.936-3.488-4.4-3.488A13.258,13.258,0,0,0,6.7-6.528V-7.12c0-.464,0-.96.016-1.44,1.04-.128,2.144-.288,3.056-.5L9.728-11.04a19.6,19.6,0,0,1-2.944.576c.016-.4.032-.784.048-1.136C6.864-12.016,6.928-12.7,6.976-12.992Zm4.56,1.728-.88,1.552a25.457,25.457,0,0,1,3.856,2.336l.96-1.632A33.435,33.435,0,0,0,11.536-11.264ZM3.264-2.3c0-.56.656-1.216,1.632-1.744.032.864.048,1.6.048,2,0,.544-.224.672-.512.672C4.016-1.376,3.264-1.808,3.264-2.3Zm19.984-9.184v.864H20.8v-.864ZM20.8-8.432v-.912h2.448v.912Zm4.224,1.44v-5.952H18.912V1.392H20.8V-6.992Zm1.84,2.672v1.888h-2.64V-4.32ZM28.64-.864V-5.888H22.448V.032h1.776v-.9Zm-.7-7.552v-.928h2.528v.928ZM30.464-11.5v.88H27.936v-.88Zm1.92-1.44H26.128v5.968h4.336V-.912c0,.288-.112.384-.416.384-.3.016-1.392.032-2.32-.032a6.813,6.813,0,0,1,.64,1.952A7.86,7.86,0,0,0,31.5,1.024c.672-.3.88-.848.88-1.9Zm6.976,1.5L36.9-11.472a9.725,9.725,0,0,1,.128,1.632c0,.976.016,2.848.176,4.32C37.648-1.232,39.168.352,40.928.352c1.28,0,2.288-.976,3.344-3.76l-1.6-1.952c-.3,1.28-.944,3.152-1.7,3.152-1.008,0-1.488-1.584-1.712-3.888-.1-1.152-.112-2.352-.1-3.392A12.945,12.945,0,0,1,39.36-11.44Zm8,.368-2.032.656c1.744,1.984,2.592,5.872,2.848,8.448l2.1-.816C50.1-5.232,48.88-9.232,47.36-11.072Zm16.624,7.6V-.864h-6.32V-3.472Zm-8.192,4.88h1.872V.816h6.32v.592h1.952v-6.56H55.792Zm1.776-9.824a16.348,16.348,0,0,0,3.184-3.248,17.527,17.527,0,0,0,3.28,3.248Zm2.112-5.12a16.938,16.938,0,0,1-6.512,5.7,7.77,7.77,0,0,1,1.2,1.552,22.293,22.293,0,0,0,2.48-1.568v1.12h7.968v-1.1a19.191,19.191,0,0,0,2.448,1.52A9.3,9.3,0,0,1,68.5-8.032a16.073,16.073,0,0,1-6.848-5.5Zm15.072,2c0,.176-.032.624-.064,1.232-.688.1-1.392.176-1.856.208a13.747,13.747,0,0,1-1.392.016l.208,2.048c.9-.128,2.128-.288,2.912-.384-.016.384-.048.768-.08,1.136-.912,1.344-2.512,3.456-3.424,4.576L72.32-.96c.56-.752,1.344-1.92,2.016-2.928-.016,1.344-.032,2.272-.064,3.52,0,.256-.016.832-.048,1.184h2.208c-.048-.368-.1-.944-.112-1.232-.1-1.5-.1-2.848-.1-4.16,0-.416.016-.88.032-1.344a6.727,6.727,0,0,1,4.528-2.048,2.46,2.46,0,0,1,2.608,2.4c.016,2.5-2,3.648-4.816,4.064l.96,1.936c3.968-.784,6-2.72,6-5.952A4.246,4.246,0,0,0,81.12-9.84a7.857,7.857,0,0,0-4.7,1.648c.016-.144.016-.3.032-.448.272-.416.592-.944.816-1.232l-.592-.752c.128-1.008.256-1.824.352-2.272l-2.336-.08A8.834,8.834,0,0,1,74.752-11.536ZM100.24-12.56H98.1a13.461,13.461,0,0,1,.112,1.472V-9.28c-1.456.128-3.008.272-4.368.4,0-.624.016-1.168.016-1.536a10.6,10.6,0,0,1,.1-1.664H91.7a12.358,12.358,0,0,1,.128,1.776v1.616c-.512.048-.928.08-1.216.112-.816.08-1.552.112-2.016.112l.224,2.048c.416-.064,1.408-.224,1.92-.288.272-.032.64-.064,1.072-.112,0,1.488,0,3.04.016,3.728C91.9-.32,92.4.544,96.544.544A45.263,45.263,0,0,0,101.1.288l.08-2.176a32.235,32.235,0,0,1-4.784.4c-2.4,0-2.544-.352-2.576-1.92-.032-.688-.016-2.16,0-3.632,1.36-.144,2.928-.288,4.352-.4A17.63,17.63,0,0,1,98.048-5.5c-.032.3-.176.368-.5.368a8.477,8.477,0,0,1-1.472-.208l-.048,1.776a24.216,24.216,0,0,0,2.416.24c.816,0,1.216-.208,1.392-1.056a28.07,28.07,0,0,0,.24-3.2c.464-.032.88-.048,1.232-.064.416-.016,1.264-.032,1.536-.016V-9.632c-.464.048-1.088.08-1.536.112-.368.016-.768.048-1.2.08.016-.528.016-1.1.032-1.728C100.16-11.6,100.208-12.3,100.24-12.56Z" transform="translate(808.553 573.591)" fill="#fff"/>
  </g>
</svg>
